<svg width="111" height="45" viewBox="0 0 111 45" fill="none" xmlns="http://www.w3.org/2000/svg">
<rect width="110.625" height="45" rx="5.625" fill="#C4C4C4"/>
<path d="M56.5873 14.5824V29H59.1651V24.2341H62.0826C65.0001 24.2341 67.0483 22.2858 67.0483 19.4083C67.0483 16.5307 65.06 14.5824 62.1925 14.5824H56.5873ZM59.1651 16.6906H61.5131C63.3615 16.6906 64.4305 17.6797 64.4305 19.4083C64.4305 21.1568 63.3515 22.1559 61.5031 22.1559H59.1651V16.6906ZM68.6956 29H71.1835V14.5824H68.6956V29ZM77.1071 27.2915C76.0281 27.2915 75.3087 26.7419 75.3087 25.8727C75.3087 25.0334 75.9981 24.4939 77.1971 24.4139L79.6449 24.2641V25.0734C79.6449 26.3523 78.5159 27.2915 77.1071 27.2915ZM76.3578 29.1699C77.7166 29.1699 79.0455 28.4605 79.6549 27.3115H79.7049V29H82.1028V21.7063C82.1028 19.5781 80.3943 18.1893 77.7666 18.1893C75.0689 18.1893 73.3803 19.6081 73.2704 21.5864H75.5784C75.7383 20.7071 76.4877 20.1376 77.6666 20.1376C78.8956 20.1376 79.6449 20.7771 79.6449 21.8861V22.6455L76.8474 22.8053C74.2696 22.9652 72.8208 24.0942 72.8208 25.9726C72.8208 27.881 74.3095 29.1699 76.3578 29.1699ZM85.1889 32.9366C87.6068 32.9366 88.7758 32.0474 89.6851 29.4196L93.5118 18.4091H90.894L88.3962 26.8818H88.3562L85.8583 18.4091H83.1407L86.9074 29.01C86.9174 29.04 86.7676 29.5695 86.7676 29.5995C86.4878 30.5786 85.9583 30.9683 84.9291 30.9683C84.7793 30.9683 84.3397 30.9583 84.2098 30.9283V32.8966C84.3397 32.9266 85.049 32.9366 85.1889 32.9366Z" fill="black"/>
<path d="M22 11V32.6L40 21.8L22 11Z" fill="black"/>
</svg>
